<svg xmlns="http://www.w3.org/2000/svg" width="256" height="256" fill="none" viewBox="0 0 256 256" id="airdrop">
  <rect width="224" height="224" x="16" y="16" fill="#EEE" rx="70"></rect>
  <path fill="#007AFF" d="M119.321 127.823C119.321 130.175 120.255 132.431 121.918 134.094C123.582 135.757 125.838 136.692 128.19 136.692C130.542 136.692 132.798 135.757 134.461 134.094C136.125 132.431 137.059 130.175 137.059 127.823C137.059 125.47 136.125 123.214 134.461 121.551C132.798 119.888 130.542 118.953 128.19 118.953C125.838 118.953 123.582 119.888 121.918 121.551C120.255 123.214 119.321 125.47 119.321 127.823Z"></path>
  <path fill="#007AFF" d="M137.067 152.867C135.975 152.867 134.916 152.492 134.067 151.805C133.218 151.118 132.63 150.161 132.402 149.093C132.174 148.025 132.32 146.911 132.814 145.937C133.309 144.964 134.123 144.189 135.12 143.744C138.742 142.128 141.704 139.323 143.513 135.793C145.322 132.264 145.87 128.222 145.065 124.338C144.261 120.454 142.153 116.961 139.092 114.44C136.03 111.919 132.198 110.52 128.232 110.476C124.266 110.432 120.404 111.745 117.287 114.198C114.17 116.65 111.985 120.095 111.094 123.96C110.204 127.825 110.662 131.878 112.392 135.447C114.122 139.017 117.02 141.887 120.606 143.582C121.718 144.142 122.568 145.114 122.972 146.291C123.377 147.468 123.306 148.757 122.773 149.882C122.24 151.007 121.289 151.879 120.121 152.312C118.954 152.744 117.664 152.703 116.527 152.197C111.927 150.001 108.042 146.552 105.316 142.245C102.59 137.939 101.136 132.951 101.119 127.854C101.119 113.008 113.2 100.929 128.046 100.929C142.891 100.929 154.972 113.008 154.972 127.854C154.968 133.056 153.459 138.146 150.628 142.51C147.796 146.874 143.763 150.326 139.014 152.45C138.402 152.725 137.738 152.868 137.067 152.867Z"></path>
  <path fill="#007AFF" d="M110.349 170.883C109.659 170.883 108.978 170.733 108.352 170.442C100.22 166.664 93.3338 160.644 88.5023 153.09C83.6709 145.536 81.0944 136.76 81.0752 127.793C81.0752 101.895 102.142 80.8284 128.039 80.8284C153.937 80.8284 175.004 101.895 175.004 127.791C175.027 136.483 172.628 145.01 168.075 152.414C163.522 159.819 156.996 165.808 149.229 169.709C148.669 170.001 148.058 170.178 147.43 170.231C146.801 170.284 146.169 170.212 145.568 170.019C144.968 169.826 144.412 169.516 143.933 169.107C143.453 168.697 143.059 168.197 142.774 167.634C142.49 167.072 142.319 166.459 142.273 165.83C142.227 165.201 142.306 164.569 142.505 163.971C142.705 163.373 143.021 162.82 143.436 162.345C143.851 161.87 144.355 161.482 144.921 161.204C151.113 158.095 156.316 153.321 159.946 147.419C163.576 141.517 165.488 134.72 165.469 127.791C165.469 107.152 148.678 90.3615 128.039 90.3615C107.401 90.3615 90.6101 107.16 90.6101 127.791C90.6249 134.939 92.6786 141.934 96.53 147.956C100.382 153.977 105.871 158.775 112.354 161.786C113.34 162.243 114.141 163.022 114.623 163.996C115.106 164.97 115.241 166.079 115.008 167.14C114.774 168.201 114.185 169.151 113.337 169.832C112.49 170.512 111.436 170.883 110.349 170.883Z"></path>
  <path fill="#007AFF" d="M99.4365 187.753C98.6693 187.753 97.9135 187.567 97.2336 187.211C86.3976 181.589 77.3168 173.095 70.9851 162.657C64.6533 152.22 61.3145 140.242 61.3341 128.035C61.3341 91.2561 91.2571 61.333 128.036 61.333C164.814 61.333 194.741 91.2561 194.741 128.035C194.743 140.047 191.501 151.838 185.358 162.161C179.214 172.483 170.397 180.956 159.837 186.683C158.727 187.27 157.43 187.395 156.228 187.032C155.026 186.669 154.016 185.846 153.417 184.743C152.818 183.64 152.678 182.344 153.027 181.138C153.377 179.932 154.188 178.913 155.285 178.301C164.336 173.393 171.894 166.132 177.16 157.284C182.426 148.437 185.205 138.331 185.202 128.035C185.202 96.5112 159.557 70.8697 128.036 70.8697C96.5141 70.8697 70.8745 96.5131 70.8745 128.035C70.8579 138.498 73.7197 148.765 79.1468 157.711C84.5739 166.657 92.3572 173.938 101.645 178.757C102.59 179.252 103.342 180.049 103.781 181.021C104.22 181.993 104.32 183.085 104.066 184.121C103.812 185.157 103.217 186.077 102.378 186.736C101.539 187.394 100.503 187.752 99.4365 187.753Z"></path>
</svg>
