<svg xmlns="http://www.w3.org/2000/svg" width="256" height="256" fill="none" viewBox="0 0 256 256" id="arc">
  <path fill="url(#paint0_linear_533_5458)" fill-rule="evenodd" d="M58.7042 58.7042C48.8797 68.5258 45.3321 82.2477 48.0614 94.8868C37.1932 101.897 30 114.109 30 128C30 141.892 37.1942 154.103 48.0614 161.112C45.3331 173.751 48.8807 187.473 58.7042 197.297C68.5267 207.119 82.2487 210.667 94.8878 207.94C101.897 218.806 114.109 226 128 226C141.892 226 154.103 218.806 161.112 207.94C173.751 210.667 187.473 207.119 197.297 197.297C207.119 187.473 210.667 173.751 207.94 161.112C218.806 154.103 226 141.892 226 128C226 114.109 218.806 101.897 207.94 94.8878C210.667 82.2487 207.119 68.5258 197.297 58.7032C187.473 48.8807 173.751 45.3331 161.112 48.0604C154.103 37.1942 141.892 30 128 30C114.109 30 101.897 37.1942 94.8878 48.0614C82.2487 45.3331 68.5267 48.8807 58.7042 58.7042Z" clip-rule="evenodd"></path>
  <path fill="url(#paint1_linear_533_5458)" fill-rule="evenodd" d="M48.0614 161.112C37.1942 154.103 30 141.892 30 128C30 114.109 37.1932 101.897 48.0614 94.8868C45.3321 82.2477 48.8797 68.5258 58.7042 58.7042C68.5267 48.8807 82.2487 45.3331 94.8878 48.0614C101.897 37.1942 114.109 30 128 30C141.892 30 154.103 37.1942 161.112 48.0604C173.751 45.3331 187.473 48.8807 197.297 58.7032C207.119 68.5258 210.667 82.2487 207.94 94.8878C218.806 101.897 226 114.109 226 128C226 141.892 218.806 154.103 207.94 161.112C210.667 173.751 207.119 187.473 197.297 197.297C187.473 207.119 173.751 210.667 161.112 207.94C154.103 218.806 141.892 226 128 226C114.109 226 101.897 218.806 94.8878 207.94C82.2487 210.667 68.5267 207.119 58.7042 197.297C48.8807 187.473 45.3331 173.751 48.0614 161.112Z" clip-rule="evenodd"></path>
  <path fill="#FFFCEA" d="M155.625 90.3032L147.957 74.5152C145.767 70.014 142.347 66.2254 138.092 63.5884C133.837 60.9513 128.922 59.5737 123.916 59.6152C118.911 59.6566 114.02 61.1154 109.809 63.8225C105.598 66.5296 102.241 70.3743 100.126 74.9112L89.5495 97.6152C85.6657 95.3373 81.2651 94.0878 76.7638 93.9849C72.2624 93.882 67.8093 94.9291 63.8255 97.0271C51.1775 103.635 46.7415 119.283 52.0255 131.435C55.0455 138.423 59.4535 144.915 64.8535 150.667L62.0695 156.647C60.2759 160.492 59.4337 164.713 59.614 168.952C59.7943 173.191 60.9918 177.324 63.1055 181.003C65.3986 185.035 68.7247 188.383 72.7415 190.703C77.6796 193.588 83.4197 194.795 89.1015 194.143L89.1815 194.131L89.2535 194.123C93.7857 193.545 98.0949 191.818 101.772 189.106C105.449 186.394 108.371 182.787 110.262 178.627L111.654 175.639C115.71 176.291 119.813 176.615 123.934 176.603H124.046C128.724 176.547 133.387 176.065 137.978 175.163L139.718 178.743L139.726 178.759C141.919 183.248 145.335 187.027 149.581 189.662C153.826 192.296 158.729 193.679 163.725 193.651H163.785C169.781 193.59 175.58 191.498 180.234 187.718C184.888 183.937 188.124 178.691 189.413 172.835L189.434 172.735L189.453 172.639C190.646 166.766 189.838 160.663 187.158 155.303L184.033 148.839C194.261 137.667 201.766 123.711 204.714 108.259C205.373 104.833 205.345 101.31 204.632 97.8949C203.919 94.4796 202.536 91.2397 200.562 88.3632C198.109 84.7716 194.811 81.8384 190.958 79.8218C187.104 77.8052 182.814 76.7672 178.466 76.7992H178.41C173.76 76.8547 169.207 78.132 165.207 80.503C161.208 82.8739 157.906 86.251 155.625 90.3032Z"></path>
  <path fill="#210784" d="M92.4799 120.648L86.2959 133.948L79.8359 147.828C82.2652 149.844 84.8225 151.702 87.4919 153.388C92.8602 156.767 98.6446 159.434 104.7 161.324L110.94 147.924L116.8 135.324C107.364 133.352 97.9199 127.664 92.4799 120.648Z"></path>
  <path fill="#26069C" d="M169.009 146.253L155.929 119.309C153.062 122.845 149.703 125.951 145.953 128.533C141.759 131.465 137.073 133.621 132.117 134.897L144.617 160.577C150.734 158.438 156.535 155.488 161.865 151.805C164.356 150.1 166.742 148.246 169.009 146.253Z"></path>
  <path fill="#2404AA" d="M87.467 153.377C84.7965 151.693 82.2391 149.836 79.811 147.817L73.275 161.865C72.3164 163.918 71.8667 166.171 71.9642 168.434C72.0617 170.697 72.7034 172.903 73.835 174.865C75.047 177.005 76.815 178.785 78.947 180.005C81.583 181.553 84.651 182.205 87.687 181.853C90.136 181.541 92.464 180.606 94.4486 179.137C96.4332 177.669 98.0081 175.716 99.023 173.465L104.675 161.317C98.6195 159.427 92.8352 156.758 87.467 153.377Z"></path>
  <path fill="#F99" d="M190.359 95.3397C189.051 93.4194 187.29 91.8508 185.232 90.7723C183.174 89.6938 180.883 89.1386 178.559 89.1557C175.294 89.1944 172.142 90.3615 169.64 92.459C167.137 94.5566 165.436 97.4554 164.827 100.664C163.442 107.514 160.393 113.918 155.947 119.312L169.027 146.252C180.867 135.84 189.563 121.692 192.567 105.928C192.92 104.105 192.906 102.23 192.527 100.412C192.148 98.5941 191.411 96.8699 190.359 95.3397Z"></path>
  <path fill="#FF5060" d="M176.069 160.769L169.037 146.233L155.957 119.293L136.837 79.9169C135.671 77.5151 133.847 75.4932 131.578 74.0858C129.309 72.6784 126.688 71.9431 124.018 71.9653C121.348 71.9875 118.739 72.7663 116.494 74.2112C114.249 75.6561 112.459 77.7081 111.333 80.1289L92.4648 120.629C97.9008 127.645 107.369 133.365 116.781 135.297L122.921 122.105C123.052 121.823 123.261 121.583 123.523 121.415C123.785 121.246 124.09 121.156 124.401 121.153C124.713 121.151 125.019 121.236 125.283 121.401C125.548 121.565 125.761 121.801 125.897 122.081L132.145 134.897L144.645 160.577L150.833 173.329C152.005 175.728 153.83 177.748 156.099 179.156C158.367 180.564 160.987 181.303 163.657 181.289C166.858 181.257 169.953 180.141 172.438 178.122C174.922 176.104 176.649 173.303 177.337 170.177C177.985 166.988 177.538 163.673 176.069 160.769Z"></path>
  <path fill="#0034FE" d="M132.132 134.893C129.355 135.597 126.505 135.968 123.64 135.997C121.339 136 119.044 135.761 116.792 135.285C107.38 133.329 97.9322 127.637 92.5002 120.625C91.2044 118.986 90.1211 117.189 89.2762 115.277C88.5509 113.431 87.4439 111.758 86.0274 110.369C84.611 108.979 82.9171 107.905 81.0567 107.215C79.1963 106.526 77.2113 106.237 75.2315 106.368C73.2518 106.498 71.3219 107.045 69.5682 107.973C63.1042 111.333 60.4482 119.821 63.3682 126.513C66.7442 134.333 72.4562 141.681 79.8482 147.825C82.2802 149.845 84.8362 151.705 87.5082 153.385C92.8763 156.766 98.6607 159.435 104.716 161.325C110.924 163.273 117.392 164.257 123.896 164.237C130.952 164.153 137.947 162.915 144.604 160.573L132.132 134.893Z"></path>
  <defs>
    <linearGradient id="paint0_linear_533_5458" x1="226" x2="30" y1="226" y2="30" gradientUnits="userSpaceOnUse">
      <stop stop-color="#ACCCFF" stop-opacity="0"></stop>
      <stop offset="1" stop-color="#fff"></stop>
    </linearGradient>
    <linearGradient id="paint1_linear_533_5458" x1="226" x2="30" y1="226" y2="30" gradientUnits="userSpaceOnUse">
      <stop stop-color="#ACCCFF" stop-opacity="0"></stop>
      <stop offset="1" stop-color="#fff"></stop>
    </linearGradient>
  </defs>
</svg>
