<svg xmlns="http://www.w3.org/2000/svg" width="256" height="256" fill="none" viewBox="0 0 256 256" id="linear">
  <path fill="url(#paint0_linear_533_5363)" fill-rule="evenodd" d="M58.7042 58.7042C48.8797 68.5258 45.3321 82.2477 48.0614 94.8868C37.1932 101.897 30 114.109 30 128C30 141.892 37.1942 154.103 48.0614 161.112C45.3331 173.751 48.8807 187.473 58.7042 197.297C68.5267 207.119 82.2487 210.667 94.8878 207.94C101.897 218.806 114.109 226 128 226C141.892 226 154.103 218.806 161.112 207.94C173.751 210.667 187.473 207.119 197.297 197.297C207.119 187.473 210.667 173.751 207.94 161.112C218.806 154.103 226 141.892 226 128C226 114.109 218.806 101.897 207.94 94.8878C210.667 82.2487 207.119 68.5258 197.297 58.7032C187.473 48.8807 173.751 45.3331 161.112 48.0604C154.103 37.1942 141.892 30 128 30C114.109 30 101.897 37.1942 94.8878 48.0614C82.2487 45.3331 68.5267 48.8807 58.7042 58.7042Z" clip-rule="evenodd"></path>
  <path fill="url(#paint1_linear_533_5363)" fill-rule="evenodd" d="M48.0614 161.112C37.1942 154.103 30 141.892 30 128C30 114.109 37.1932 101.897 48.0614 94.8868C45.3321 82.2477 48.8797 68.5258 58.7042 58.7042C68.5267 48.8807 82.2487 45.3331 94.8878 48.0614C101.897 37.1942 114.109 30 128 30C141.892 30 154.103 37.1942 161.112 48.0604C173.751 45.3331 187.473 48.8807 197.297 58.7032C207.119 68.5258 210.667 82.2487 207.94 94.8878C218.806 101.897 226 114.109 226 128C226 141.892 218.806 154.103 207.94 161.112C210.667 173.751 207.119 187.473 197.297 197.297C187.473 207.119 173.751 210.667 161.112 207.94C154.103 218.806 141.892 226 128 226C114.109 226 101.897 218.806 94.8878 207.94C82.2487 210.667 68.5267 207.119 58.7042 197.297C48.8807 187.473 45.3331 173.751 48.0614 161.112Z" clip-rule="evenodd"></path>
  <path fill="#222326" d="M65.591 114.777L141.223 190.409C142.327 191.513 141.794 193.388 140.259 193.675C137.673 194.158 135.061 194.488 132.436 194.662C132.156 194.68 131.876 194.637 131.613 194.538C131.351 194.438 131.113 194.284 130.915 194.085L61.9155 125.085C61.7164 124.887 61.5619 124.649 61.4623 124.387C61.3626 124.124 61.3202 123.844 61.3379 123.564C61.515 120.91 61.8473 118.3 62.3254 115.741C62.6118 114.206 64.4868 113.673 65.591 114.777ZM63.4598 145.4C62.9546 143.518 65.1785 142.33 66.5566 143.709L112.291 189.443C113.67 190.822 112.482 193.045 110.6 192.54C87.6676 186.392 69.6087 168.333 63.4598 145.4ZM70.0879 94.7518C70.7301 93.6398 72.2478 93.4689 73.1556 94.3773L161.623 182.843C162.532 183.752 162.361 185.269 161.248 185.912C159.371 186.996 157.441 187.987 155.467 188.883C154.722 189.222 153.847 189.051 153.269 188.472L67.528 102.732C66.9493 102.153 66.7785 101.279 67.1165 100.534C68.0126 98.5598 69.0044 96.6304 70.0884 94.7528M127.927 61.333C164.787 61.333 194.667 91.2132 194.667 128.073C194.667 147.64 186.246 165.24 172.831 177.448C172.056 178.153 170.868 178.106 170.127 177.366L78.6342 85.8726C77.8941 85.132 77.8478 83.9439 78.5519 83.1695C90.7598 69.7538 108.36 61.333 127.927 61.333Z"></path>
  <defs>
    <linearGradient id="paint0_linear_533_5363" x1="226" x2="30" y1="226" y2="30" gradientUnits="userSpaceOnUse">
      <stop stop-color="#ACCCFF" stop-opacity="0"></stop>
      <stop offset="1" stop-color="#fff"></stop>
    </linearGradient>
    <linearGradient id="paint1_linear_533_5363" x1="226" x2="30" y1="226" y2="30" gradientUnits="userSpaceOnUse">
      <stop stop-color="#ACCCFF" stop-opacity="0"></stop>
      <stop offset="1" stop-color="#fff"></stop>
    </linearGradient>
  </defs>
</svg>
